<svg width="25" height="26" viewBox="0 0 25 26" fill="none" xmlns="http://www.w3.org/2000/svg">
<path d="M21.5078 2.89709L13.7002 8.92785L15.144 5.36979L21.5078 2.89709Z" fill="#E2761B" stroke="#E2761B" stroke-linecap="round" stroke-linejoin="round"/>
<path d="M3.48438 2.89709L11.2292 8.98498L9.856 5.36979L3.48438 2.89709Z" fill="#E4761B" stroke="#E4761B" stroke-linecap="round" stroke-linejoin="round"/>
<path d="M18.6986 16.8763L16.6191 20.1896L21.0683 21.4627L22.3473 16.9498L18.6986 16.8763Z" fill="#E4761B" stroke="#E4761B" stroke-linecap="round" stroke-linejoin="round"/>
<path d="M2.66016 16.9498L3.93134 21.4627L8.3805 20.1896L6.30109 16.8763L2.66016 16.9498Z" fill="#E4761B" stroke="#E4761B" stroke-linecap="round" stroke-linejoin="round"/>
<path d="M8.12945 11.2782L6.88965 13.2286L11.3074 13.4326L11.1505 8.49536L8.12945 11.2782Z" fill="#E4761B" stroke="#E4761B" stroke-linecap="round" stroke-linejoin="round"/>
<path d="M16.8625 11.2782L13.8022 8.43823L13.7002 13.4326L18.1101 13.2286L16.8625 11.2782Z" fill="#E4761B" stroke="#E4761B" stroke-linecap="round" stroke-linejoin="round"/>
<path d="M8.38086 20.1897L11.0331 18.8432L8.74181 16.9825L8.38086 20.1897Z" fill="#E4761B" stroke="#E4761B" stroke-linecap="round" stroke-linejoin="round"/>
<path d="M13.96 18.8432L16.62 20.1897L16.2512 16.9825L13.96 18.8432Z" fill="#E4761B" stroke="#E4761B" stroke-linecap="round" stroke-linejoin="round"/>
<path d="M16.62 20.1895L13.96 18.843L14.1718 20.6465L14.1483 21.4055L16.62 20.1895Z" fill="#D7C1B3" stroke="#D7C1B3" stroke-linecap="round" stroke-linejoin="round"/>
<path d="M8.38086 20.1895L10.8526 21.4055L10.8369 20.6465L11.0331 18.843L8.38086 20.1895Z" fill="#D7C1B3" stroke="#D7C1B3" stroke-linecap="round" stroke-linejoin="round"/>
<path d="M10.8915 15.7909L8.67871 15.1136L10.2402 14.371L10.8915 15.7909Z" fill="#233447" stroke="#233447" stroke-linecap="round" stroke-linejoin="round"/>
<path d="M14.1006 15.7909L14.7519 14.371L16.3212 15.1136L14.1006 15.7909Z" fill="#233447" stroke="#233447" stroke-linecap="round" stroke-linejoin="round"/>
<path d="M8.38019 20.1896L8.75684 16.8763L6.30078 16.9498L8.38019 20.1896Z" fill="#CD6116" stroke="#CD6116" stroke-linecap="round" stroke-linejoin="round"/>
<path d="M16.2432 16.8763L16.6198 20.1896L18.6992 16.9498L16.2432 16.8763Z" fill="#CD6116" stroke="#CD6116" stroke-linecap="round" stroke-linejoin="round"/>
<path d="M18.1101 13.2285L13.7002 13.4325L14.1082 15.791L14.7595 14.371L16.3289 15.1136L18.1101 13.2285Z" fill="#CD6116" stroke="#CD6116" stroke-linecap="round" stroke-linejoin="round"/>
<path d="M8.67872 15.1136L10.2481 14.371L10.8915 15.791L11.3074 13.4325L6.88965 13.2285L8.67872 15.1136Z" fill="#CD6116" stroke="#CD6116" stroke-linecap="round" stroke-linejoin="round"/>
<path d="M6.88965 13.2285L8.7415 16.9824L8.67873 15.1136L6.88965 13.2285Z" fill="#E4751F" stroke="#E4751F" stroke-linecap="round" stroke-linejoin="round"/>
<path d="M16.3294 15.1136L16.251 16.9824L18.1107 13.2285L16.3294 15.1136Z" fill="#E4751F" stroke="#E4751F" stroke-linecap="round" stroke-linejoin="round"/>
<path d="M11.3075 13.4325L10.8916 15.7909L11.4095 18.5737L11.5272 14.9096L11.3075 13.4325Z" fill="#E4751F" stroke="#E4751F" stroke-linecap="round" stroke-linejoin="round"/>
<path d="M13.7011 13.4325L13.4893 14.9014L13.5834 18.5737L14.1092 15.7909L13.7011 13.4325Z" fill="#E4751F" stroke="#E4751F" stroke-linecap="round" stroke-linejoin="round"/>
<path d="M14.1087 15.791L13.583 18.5738L13.9597 18.8431L16.2509 16.9824L16.3294 15.1136L14.1087 15.791Z" fill="#F6851B" stroke="#F6851B" stroke-linecap="round" stroke-linejoin="round"/>
<path d="M8.67871 15.1136L8.74149 16.9824L11.0328 18.8431L11.4094 18.5738L10.8915 15.791L8.67871 15.1136Z" fill="#F6851B" stroke="#F6851B" stroke-linecap="round" stroke-linejoin="round"/>
<path d="M14.1483 21.4055L14.1718 20.6466L13.9756 20.467H11.0174L10.8369 20.6466L10.8526 21.4055L8.38086 20.1896L9.24401 20.924L10.9939 22.1889H13.9992L15.7569 20.924L16.62 20.1896L14.1483 21.4055Z" fill="#C0AD9E" stroke="#C0AD9E" stroke-linecap="round" stroke-linejoin="round"/>
<path d="M13.959 18.843L13.5823 18.5737H11.4088L11.0321 18.843L10.8359 20.6465L11.0164 20.467H13.9747L14.1708 20.6465L13.959 18.843Z" fill="#161616" stroke="#161616" stroke-linecap="round" stroke-linejoin="round"/>
<path d="M21.8372 9.31957L22.5042 5.99L21.5076 2.89709L13.959 8.72384L16.8623 11.2781L20.9662 12.5267L21.8764 11.425L21.4841 11.1312L22.1118 10.5355L21.6253 10.1438L22.2531 9.646L21.8372 9.31957Z" fill="#763D16" stroke="#763D16" stroke-linecap="round" stroke-linejoin="round"/>
<path d="M2.49512 5.99L3.1621 9.31957L2.73837 9.646L3.36612 10.1438L2.88746 10.5355L3.5152 11.1312L3.12286 11.425L4.02525 12.5267L8.12914 11.2781L11.0325 8.72384L3.48382 2.89709L2.49512 5.99Z" fill="#763D16" stroke="#763D16" stroke-linecap="round" stroke-linejoin="round"/>
<path d="M20.9669 12.5267L16.863 11.2781L18.1107 13.2285L16.251 16.9824L18.6992 16.9498H22.348L20.9669 12.5267Z" fill="#F6851B" stroke="#F6851B" stroke-linecap="round" stroke-linejoin="round"/>
<path d="M8.1294 11.2781L4.0255 12.5267L2.66016 16.9498H6.30109L8.74145 16.9824L6.8896 13.2285L8.1294 11.2781Z" fill="#F6851B" stroke="#F6851B" stroke-linecap="round" stroke-linejoin="round"/>
<path d="M13.7004 13.4325L13.9594 8.7238L15.1521 5.36975H9.85547L11.0325 8.7238L11.3071 13.4325L11.4013 14.9178L11.4091 18.5738H13.5827L13.5984 14.9178L13.7004 13.4325Z" fill="#F6851B" stroke="#F6851B" stroke-linecap="round" stroke-linejoin="round"/>
</svg>
